Coordinates
version=1
nRows=6
nColumns=36
inDegrees=yes

Units are S.I. units (second, meters, Newtons, ...)
If the header above contains a line with 'inDegrees', this indicates whether rotational values are in degrees (yes) or radians (no).

endheader
time	pelvis_tilt	pelvis_list	pelvis_rotation	pelvis_tx	pelvis_ty	pelvis_tz	hip_flexion_r	hip_adduction_r	hip_rotation_r	knee_angle_r	knee_angle_r_beta	ankle_angle_r	subtalar_angle_r	mtp_angle_r	hip_flexion_l	hip_adduction_l	hip_rotation_l	knee_angle_l	knee_angle_l_beta	ankle_angle_l	subtalar_angle_l	mtp_angle_l	lumbar_extension	lumbar_bending	lumbar_rotation	arm_flex_r	arm_add_r	arm_rot_r	elbow_flex_r	pro_sup_r	arm_flex_l	arm_add_l	arm_rot_l	elbow_flex_l	pro_sup_l
     44.80000000	     -2.03542298	      3.42455050	      1.14044516	      1.06247805	      0.92504446	      0.74379815	    -11.23458652	     -2.73119961	      9.84956865	      8.98668382	      0.15684722	     14.11494146	      4.71591000	     -7.49999987	     31.72542785	     -0.19033205	     -1.23728582	      9.94426355	      0.17356014	      7.99778795	     -1.06547307	     -7.49999987	    -14.39059818	     -2.03137336	     11.15780823	      5.89397717	    -17.51126063	     11.40194381	     34.45205275	     65.63917757	     -2.41635813	    -15.98629854	     17.33418125	     66.72216912	     62.94448998
     44.81666670	     -2.25661637	      3.84726376	      1.28366804	      1.06543990	      0.91642225	      0.74393567	    -11.92606897	     -3.06611913	     10.23338893	      9.85083937	      0.17192958	     14.11061239	      3.64849703	     -7.49999987	     32.02766054	      0.91289014	     -0.59947780	     11.16425923	      0.19485308	      7.41983446	     -1.23503750	     -7.49999987	    -14.16461148	     -3.00733292	     11.31934075	      6.12448036	    -17.24825453	     11.64209872	     34.31641345	     65.54408836	     -2.53980595	    -17.07482271	     17.75034740	     69.51830323	     63.31230992
     44.83333330	     -2.43639993	      4.11135360	      1.30004090	      1.07100492	      0.90703745	      0.74385844	    -12.43720948	     -3.33916819	     10.33590446	     11.28983426	      0.19704478	     14.21612321	      2.52636757	     -7.49999987	     31.96500740	      1.82671597	     -0.15837064	     12.94410927	      0.22591733	      5.99177971	     -1.82109064	     -7.49999987	    -13.70827140	     -3.88883444	     11.77913392	      5.72290079	    -17.05484952	     11.73649950	     34.51508281	     65.44299557	     -2.83268429	    -18.21991890	     18.25685692	     72.40614810	     63.46841021
     44.85000000	     -2.57482242	      4.29532436	      1.25197730	      1.07762745	      0.89806857	      0.74092175	    -12.83897269	     -3.63216519	     10.29776242	     13.24030707	      0.23108695	     14.38270672	      1.14150465	     -7.49999987	     31.67118452	      2.65011181	      0.25842182	     15.06262867	      0.26289246	      4.12449760	     -2.64312983	     -7.49999987	    -13.10626882	     -4.65108178	     12.09327852	      4.94774776	    -16.89906094	     11.69334223	     34.96424412	     65.31976102	     -3.65562065	    -19.56995468	     18.98040992	     75.96103506	     63.62475682
     44.86666670	     -2.65301522	      4.52998996	      1.22635494	      1.08419488	      0.89238110	      0.73508540	    -13.23357127	     -4.03385757	     10.22066258	     15.52291970	      0.27092606	     14.13124463	     -0.33135347	     -7.49999987	     31.19480184	      3.55359530	      0.88888714	     17.17214668	      0.29971050	      2.28147114	     -3.53015350	     -7.49999987	    -12.47892145	     -5.30936590	     12.09970936	      3.82908054	    -16.84211207	     11.12918784	     35.57177234	     65.15428259	     -4.89332125	    -20.76999439	     19.52278346	     79.79556705	     63.74394628
     44.88333330	     -2.74131014	      4.83724141	      1.30620377	      1.09123836	      0.89059618	      0.72902468	    -13.44915724	     -4.58046262	      9.52302675	     18.20973092	      0.31781976	     13.32254240	     -1.17157784	     -7.49999987	     30.62906221	      4.57707893	      1.78921919	     19.16239008	      0.33444680	      0.78473954	     -4.68545619	     -7.49999987	    -11.66083692	     -5.83573850	     12.07300379	      2.31331527	    -16.79633798	     10.17297822	     36.08571819	     65.06109523	     -6.14408805	    -21.41760788	     19.65115278	     83.45604856	     63.79339472
